# xmcd
#
# Track frame offsets:
#	150
#	16796
#	28899
#	44317
#	63470
#	76764
#	89855
#	106523
#	124150
#	139379
#	154508
#	168766
#	181518
#	194614
#	206713
#	221901
#	235541
#	254298
#	269636
#
# Disc length: 3775 seconds
#
# Revision: 2
# Processed by: cddbd v1.5.2PL0 Copyright (c) Steve Scherf et al.
# Submitted via: audiograbber 1.83.01
#
DISCID=070ebd13
DTITLE=Various Artist - Promo Only Country December 2016
DYEAR=2016
DGENRE=Country
TTITLE0=Brad Paisley - Today
TTITLE1=Aubrie Sellers - Sit Here And Cry
TTITLE2=Darius Rucker - If I Told You
TTITLE3=Farewell Angelina - If It Ain't With You
TTITLE4=Thomas Rhett - Star Of The Show
TTITLE5=Blackberry Smoke - Let It Burn
TTITLE6=Hunter Hayes - Yesterday's Song
TTITLE7=Artists Of Then, Now and Forever - Forever Country
TTITLE8=Jake Owen - If He Ain't Gonna Love You (Single Edit)
TTITLE9=Ryan Follese - Put A Label On It
TTITLE10=Kelsea Ballerini - Yeah Boy
TTITLE11=Mike Watkins - Beer Drinking Song
TTITLE12=Love And Theft - Candyland
TTITLE13=Justin Moore - Somebody Else Will
TTITLE14=Jeff Dane - Hillbilly Fire
TTITLE15=John Prine and Lee Ann Womack - Fifteen Years Ago
TTITLE16=David McArthur - 101 Reasons
TTITLE17=Tucker Beathard - Momma And Jesus
TTITLE18=Waylon Jennings - Kentucky Woman
EXTD=
EXTT0=
EXTT1=
EXTT2=
EXTT3=
EXTT4=
EXTT5=
EXTT6=
EXTT7=
EXTT8=
EXTT9=
EXTT10=
EXTT11=
EXTT12=
EXTT13=
EXTT14=
EXTT15=
EXTT16=
EXTT17=
EXTT18=
PLAYORDER=
